<svg width="24" height="19" viewBox="0 0 24 19" fill="none" xmlns="http://www.w3.org/2000/svg">
<g id="flowbite:download-solid">
<g id="Group">
<g id="Vector">
<mask id="path-1-inside-1_1658_23395" fill="white">
<path fill-rule="evenodd" clip-rule="evenodd" d="M13.0039 8.82708V3.16667C13.0039 2.9567 12.8985 2.75534 12.711 2.60687C12.5235 2.45841 12.2691 2.375 12.0039 2.375C11.7387 2.375 11.4843 2.45841 11.2968 2.60687C11.1093 2.75534 11.0039 2.9567 11.0039 3.16667V8.82708L8.7839 6.62942C8.70344 6.54463 8.60229 6.47351 8.48645 6.42027C8.37061 6.36702 8.24243 6.33275 8.10954 6.31948C7.97664 6.3062 7.84173 6.3142 7.71281 6.343C7.5839 6.3718 7.4636 6.42081 7.35907 6.48712C7.25454 6.55343 7.1679 6.63569 7.1043 6.72901C7.04069 6.82234 7.00142 6.92483 6.98881 7.0304C6.97621 7.13598 6.99052 7.24248 7.0309 7.34359C7.07129 7.4447 7.13692 7.53836 7.2239 7.619L11.2239 11.5773C11.3176 11.6698 11.4363 11.7444 11.5713 11.7957C11.7063 11.847 11.8542 11.8736 12.0039 11.8736C12.1536 11.8736 12.3015 11.847 12.4365 11.7957C12.5715 11.7444 12.6902 11.6698 12.7839 11.5773L16.7839 7.619C16.8709 7.53836 16.9365 7.4447 16.9769 7.34359C17.0173 7.24248 17.0316 7.13598 17.019 7.0304C17.0064 6.92483 16.9671 6.82234 16.9035 6.72901C16.8399 6.63569 16.7533 6.55343 16.6487 6.48712C16.5442 6.42081 16.4239 6.3718 16.295 6.343C16.1661 6.3142 16.0312 6.3062 15.8983 6.31948C15.7654 6.33275 15.6372 6.36702 15.5213 6.42027C15.4055 6.47351 15.3044 6.54463 15.2239 6.62942L13.0039 8.82708Z"/>
</mask>
<path fill-rule="evenodd" clip-rule="evenodd" d="M13.0039 8.82708V3.16667C13.0039 2.9567 12.8985 2.75534 12.711 2.60687C12.5235 2.45841 12.2691 2.375 12.0039 2.375C11.7387 2.375 11.4843 2.45841 11.2968 2.60687C11.1093 2.75534 11.0039 2.9567 11.0039 3.16667V8.82708L8.7839 6.62942C8.70344 6.54463 8.60229 6.47351 8.48645 6.42027C8.37061 6.36702 8.24243 6.33275 8.10954 6.31948C7.97664 6.3062 7.84173 6.3142 7.71281 6.343C7.5839 6.3718 7.4636 6.42081 7.35907 6.48712C7.25454 6.55343 7.1679 6.63569 7.1043 6.72901C7.04069 6.82234 7.00142 6.92483 6.98881 7.0304C6.97621 7.13598 6.99052 7.24248 7.0309 7.34359C7.07129 7.4447 7.13692 7.53836 7.2239 7.619L11.2239 11.5773C11.3176 11.6698 11.4363 11.7444 11.5713 11.7957C11.7063 11.847 11.8542 11.8736 12.0039 11.8736C12.1536 11.8736 12.3015 11.847 12.4365 11.7957C12.5715 11.7444 12.6902 11.6698 12.7839 11.5773L16.7839 7.619C16.8709 7.53836 16.9365 7.4447 16.9769 7.34359C17.0173 7.24248 17.0316 7.13598 17.019 7.0304C17.0064 6.92483 16.9671 6.82234 16.9035 6.72901C16.8399 6.63569 16.7533 6.55343 16.6487 6.48712C16.5442 6.42081 16.4239 6.3718 16.295 6.343C16.1661 6.3142 16.0312 6.3062 15.8983 6.31948C15.7654 6.33275 15.6372 6.36702 15.5213 6.42027C15.4055 6.47351 15.3044 6.54463 15.2239 6.62942L13.0039 8.82708Z" fill="white"/>
<path d="M13.0039 8.82708H8.0039V20.8124L16.5215 12.3804L13.0039 8.82708ZM12.0039 2.375V-2.625V2.375ZM11.0039 8.82708L7.48629 12.3804L16.0039 20.8124L16.0039 8.82708H11.0039ZM8.7839 6.62942L5.15697 10.0711L5.21075 10.1278L5.26628 10.1828L8.7839 6.62942ZM7.2239 7.619L10.7409 4.065L10.683 4.00774L10.6233 3.95238L7.2239 7.619ZM11.2239 11.5773L7.70692 15.1313L7.71199 15.1363L11.2239 11.5773ZM12.7839 11.5773L16.2958 15.1363L16.3009 15.1313L12.7839 11.5773ZM16.7839 7.619L13.3845 3.95238L13.3248 4.00774L13.2669 4.065L16.7839 7.619ZM15.2239 6.62942L18.7415 10.1828L18.797 10.1278L18.8508 10.0711L15.2239 6.62942ZM18.0039 8.82708V3.16667H8.0039V8.82708H18.0039ZM18.0039 3.16667C18.0039 1.2034 17.0113 -0.365881 15.8145 -1.31336L9.60749 6.5271C8.78575 5.87656 8.0039 4.71001 8.0039 3.16667H18.0039ZM15.8145 -1.31336C14.6469 -2.23772 13.2658 -2.625 12.0039 -2.625V7.375C11.2725 7.375 10.4 7.15454 9.60749 6.5271L15.8145 -1.31336ZM12.0039 -2.625C10.742 -2.625 9.3609 -2.23772 8.19328 -1.31336L14.4003 6.5271C13.6078 7.15454 12.7353 7.375 12.0039 7.375V-2.625ZM8.19328 -1.31336C6.99647 -0.365881 6.0039 1.2034 6.0039 3.16667H16.0039C16.0039 4.71001 15.222 5.87656 14.4003 6.5271L8.19328 -1.31336ZM6.0039 3.16667V8.82708H16.0039V3.16667H6.0039ZM14.5215 5.27372L12.3015 3.07605L5.26628 10.1828L7.48629 12.3804L14.5215 5.27372ZM12.4108 3.18771C11.8539 2.60085 11.216 2.17197 10.5745 1.87713L6.39841 10.9634C5.98859 10.775 5.55294 10.4884 5.15697 10.0711L12.4108 3.18771ZM10.5745 1.87713C9.93225 1.58195 9.26354 1.40985 8.60642 1.34423L7.61265 11.2947C7.22133 11.2556 6.80896 11.1521 6.39841 10.9634L10.5745 1.87713ZM8.60642 1.34423C7.94882 1.27855 7.27802 1.3169 6.62277 1.46327L8.80285 11.2227C8.40544 11.3115 8.00446 11.3339 7.61265 11.2947L8.60642 1.34423ZM6.62277 1.46327C5.96845 1.60943 5.30462 1.86921 4.68075 2.26496L10.0374 10.7093C9.62259 10.9724 9.19934 11.1342 8.80285 11.2227L6.62277 1.46327ZM4.68075 2.26496C4.05666 2.66085 3.45524 3.20496 2.97256 3.9132L11.236 9.54482C10.8806 10.0664 10.4524 10.446 10.0374 10.7093L4.68075 2.26496ZM2.97256 3.9132C2.4858 4.62745 2.1378 5.48536 2.02409 6.43752L11.9535 7.62329C11.865 8.3643 11.5956 9.01723 11.236 9.54482L2.97256 3.9132ZM2.02409 6.43752C1.90993 7.39346 2.04495 8.34032 2.38756 9.19815L11.6742 5.48903C11.9361 6.14464 12.0425 6.87849 11.9535 7.62329L2.02409 6.43752ZM2.38756 9.19815C2.72698 10.048 3.24296 10.7465 3.8245 11.2856L10.6233 3.95238C11.0309 4.33025 11.4156 4.84144 11.6742 5.48903L2.38756 9.19815ZM3.70693 11.173L7.70693 15.1313L14.7409 8.02334L10.7409 4.065L3.70693 11.173ZM7.71199 15.1363C8.34692 15.7629 9.07446 16.1958 9.79599 16.4699L13.3467 7.12149C13.7982 7.29299 14.2883 7.57673 14.7358 8.01833L7.71199 15.1363ZM9.79599 16.4699C10.519 16.7445 11.2702 16.8736 12.0039 16.8736V6.87359C12.4381 6.87359 12.8937 6.94945 13.3467 7.12149L9.79599 16.4699ZM12.0039 16.8736C12.7376 16.8736 13.4888 16.7445 14.2118 16.4699L10.6611 7.12149C11.1141 6.94945 11.5697 6.87359 12.0039 6.87359V16.8736ZM14.2118 16.4699C14.9333 16.1958 15.6609 15.7629 16.2958 15.1363L9.27199 8.01833C9.71951 7.57673 10.2096 7.29299 10.6611 7.12149L14.2118 16.4699ZM16.3009 15.1313L20.3009 11.173L13.2669 4.065L9.26693 8.02334L16.3009 15.1313ZM20.1833 11.2856C20.7648 10.7465 21.2808 10.048 21.6202 9.19815L12.3336 5.48903C12.5922 4.84144 12.9769 4.33025 13.3845 3.95238L20.1833 11.2856ZM21.6202 9.19815C21.9629 8.34029 22.0979 7.39343 21.9837 6.43752L12.0543 7.62329C11.9653 6.87852 12.0717 6.14467 12.3336 5.48903L21.6202 9.19815ZM21.9837 6.43752C21.87 5.48539 21.522 4.62747 21.0352 3.9132L12.7718 9.54482C12.4122 9.01721 12.1427 8.36427 12.0543 7.62329L21.9837 6.43752ZM21.0352 3.9132C20.5526 3.20496 19.9511 2.66085 19.327 2.26496L13.9704 10.7093C13.5554 10.446 13.1272 10.0664 12.7718 9.54482L21.0352 3.9132ZM19.327 2.26496C18.7032 1.8692 18.0393 1.60943 17.385 1.46327L15.2049 11.2227C14.8085 11.1342 14.3852 10.9724 13.9704 10.7093L19.327 2.26496ZM17.385 1.46327C16.7298 1.3169 16.059 1.27855 15.4014 1.34423L16.3952 11.2947C16.0033 11.3339 15.6024 11.3115 15.2049 11.2227L17.385 1.46327ZM15.4014 1.34423C14.7443 1.40985 14.0755 1.58195 13.4333 1.87713L17.6094 10.9634C17.1988 11.1521 16.7865 11.2556 16.3952 11.2947L15.4014 1.34423ZM13.4333 1.87713C12.7918 2.17197 12.1539 2.60085 11.597 3.18771L18.8508 10.0711C18.4549 10.4884 18.0192 10.775 17.6094 10.9634L13.4333 1.87713ZM11.7063 3.07605L9.48629 5.27372L16.5215 12.3804L18.7415 10.1828L11.7063 3.07605Z" fill="white" mask="url(#path-1-inside-1_1658_23395)"/>
</g>
<path id="Vector_2" fill-rule="evenodd" clip-rule="evenodd" d="M9.657 12.5669L7.358 10.2916H5C4.46957 10.2916 3.96086 10.4584 3.58579 10.7554C3.21071 11.0523 3 11.455 3 11.875V15.0416C3 15.4616 3.21071 15.8643 3.58579 16.1612C3.96086 16.4581 4.46957 16.625 5 16.625H19C19.5304 16.625 20.0391 16.4581 20.4142 16.1612C20.7893 15.8643 21 15.4616 21 15.0416V11.875C21 11.455 20.7893 11.0523 20.4142 10.7554C20.0391 10.4584 19.5304 10.2916 19 10.2916H16.642L14.342 12.5669C14.0609 12.845 13.7045 13.0695 13.299 13.2237C12.8935 13.378 12.4494 13.4581 11.9995 13.4581C11.5496 13.4581 11.1055 13.378 10.7 13.2237C10.2945 13.0695 9.93806 12.845 9.657 12.5669ZM17 12.6666C16.7348 12.6666 16.4804 12.75 16.2929 12.8985C16.1054 13.047 16 13.2483 16 13.4583C16 13.6683 16.1054 13.8696 16.2929 14.0181C16.4804 14.1666 16.7348 14.25 17 14.25H17.01C17.2752 14.25 17.5296 14.1666 17.7171 14.0181C17.9046 13.8696 18.01 13.6683 18.01 13.4583C18.01 13.2483 17.9046 13.047 17.7171 12.8985C17.5296 12.75 17.2752 12.6666 17.01 12.6666H17Z" fill="white"/>
</g>
</g>
</svg>
